# xmcd
#
# Track frame offsets:
#	150
#	18432
#	47480
#
# Disc length: 1052 seconds
#
# Revision: 4
# Processed by: cddbd v1.4PL0 Copyright (c) Steve Scherf et al.
# Submitted via: audiograbber 1.82.02
#
DISCID=19041a03
DTITLE=St Germain - Rose Rouge [CDS)
DYEAR=2000
DGENRE=Acid Jazz
TTITLE0=Rose Rouge
TTITLE1=Montego Bay Spleen
TTITLE2=Rose Rouge
EXTD=rlokker@worldonline.nl
EXTT0=
EXTT1=
EXTT2=
PLAYORDER=
